# AST/ASF file generated using VICON BodyLanguage
# -----------------------------------------------
:version 1.10
:name VICON
:units
  mass 1.0
  length 0.45
  angle deg
:documentation
   .ast/.asf automatically generated from VICON data using
   VICON BodyBuilder and BodyLanguage model FoxedUp or BRILLIANT.MOD
:root
   order TX TY TZ RX RY RZ
   axis XYZ
   position 0 0 0  
   orientation 0 0 0 
:bonedata
  begin
     id 1 
     name lhipjoint
     direction 0.690799 -0.707083 0.151096 
     length 2.54797 
     axis 0 0 0  XYZ
  end
  begin
     id 2 
     name lfemur
     direction 0.34202 -0.939693 0  
     length 7.21646  
     axis 0 0 20  XYZ
    dof rx ry rz
    limits (-160.0 20.0)
           (-70.0 70.0)
           (-60.0 70.0)
  end
  begin
     id 3 
     name ltibia
     direction 0.34202 -0.939693 0   
     length 8.16759   
     axis 0 0 20   XYZ
    dof rx
    limits (-10.0 170.0)
  end
  begin
     id 4 
     name lfoot
     direction 0.0487203 -0.133858 0.989802   
     length 1.93375   
     axis -90 7.62852e-016 20   XYZ
    dof rx rz
    limits (-45.0 90.0)
           (-70.0 20.0)
  end
  begin
     id 5 
     name ltoes
     direction 1.53453e-011 -4.21783e-011 1   
     length 0.979747   
     axis -90 7.62852e-016 20   XYZ
    dof rx
    limits (-90.0 20.0)
  end
  begin
     id 6 
     name rhipjoint
     direction -0.694693 -0.703425 0.150315   
     length 2.56122  
     axis 0 0 0  XYZ 
  end
  begin
     id 7 
     name rfemur
     direction -0.34202 -0.939693 0   
     length 7.36786   
     axis 0 0 -20   XYZ
    dof rx ry rz
    limits (-160.0 20.0)
           (-70.0 70.0)
           (-70.0 60.0)
  end
  begin
     id 8 
     name rtibia
     direction -0.34202 -0.939693 0   
     length 8.07288   
     axis 0 0 -20   XYZ
    dof rx
    limits (-10.0 170.0)
 end
 begin
     id 9 
     name rfoot
     direction -0.0428397 -0.117701 0.992125   
     length 1.88295  
     axis -90 -7.62852e-016 -20   XYZ
    dof rx rz
    limits (-45.0 90.0)
           (-20.0 70.0)
  end
  begin
     id 10 
     name rtoes
     direction -1.53456e-011 -4.2187e-011 1   
     length 0.955578   
     axis -90 -7.62852e-016 -20   XYZ
    dof rx
    limits (-90.0 20.0)
  end
  begin
     id 11 
     name lowerback
     direction 0.0288145 0.999398 -0.0193241   
     length 1.92149   
     axis 0 0 0   XYZ
    dof rx ry rz
    limits (-20.0 45.0)
           (-30.0 30.0)
           (-30.0 30.0)
  end
  begin
     id 12 
     name upperback
     direction 0.0233784 0.998099 0.0570278   
     length 1.90435   
     axis 0 0 0   XYZ
    dof rx ry rz
    limits (-20.0 45.0)
           (-30.0 30.0)
           (-30.0 30.0)
  end
  begin
     id 13 
     name thorax
     direction 0.0096694 0.997833 0.0650817   
     length 1.9111   
     axis 0 0 0   XYZ
    dof rx ry rz
    limits (-20.0 45.0)
           (-30.0 30.0)
           (-30.0 30.0)
  end
  begin
     id 14 
     name lowerneck
     direction 0.00516803 0.999916 0.0118722   
     length 1.74664   
     axis 0 0 0   XYZ
    dof rx ry rz
    limits (-20.0 45.0)
           (-30.0 30.0)
           (-30.0 30.0)
  end
  begin
     id 15 
     name upperneck
     direction -0.0510851 0.996117 -0.071696   
     length 1.68498   
     axis 0 0 0   XYZ
    dof rx ry rz
    limits (-20.0 45.0)
           (-30.0 30.0)
           (-30.0 30.0)
  end
  begin
     id 16
     name head
     direction -0.019188 0.999436 -0.0275702  
     length 1.83483  
     axis 0 0 0   XYZ
    dof rx ry rz
    limits (-20.0 45.0)
           (-30.0 30.0)
           (-30.0 30.0)
  end
  begin
     id 17 
     name lclavicle
     direction 0.967006 0.248456 -0.0562957  
     length 3.39395  
     axis 0 0 0   XYZ
    dof ry rz
    limits (-20.0 10.0)
           (0.0 20.0)
  end
  begin
     id 18 
     name lhumerus
     direction 1 -4.48962e-011 -5.62711e-019   
     length 5.24318   
     axis 180 -30 -90   XYZ
    dof rx ry rz
    limits (-60.0 90.0)
           (-90.0 90.0)
           (-90.0 90.0)
  end
  begin
     id 19
     name lradius
     direction 1 -4.48966e-011 7.90625e-027   
     length 2.98999   
     axis 180 -30 -90   XYZ
    dof rx
    limits (-10.0 170.0)
  end
  begin
     id 20
     name lwrist
     direction 1 -4.48959e-011 1.61068e-026   
     length 1.49499   
     axis -9.31229e-015 90 90   XYZ
    dof ry
    limits (-180.0 0.0)
 end
  begin
     id 21 
     name lhand
     direction 1 -4.49017e-011 3.22136e-026   
     length 0.726745   
     axis -2.0555e-014 90 90   XYZ
    dof rx rz
    limits (-90.0 90.0)
           (-45.0 45.0)
  end
  begin
     id 22 
     name lfingers
     direction 1 -4.4898e-011 6.44272e-026   
     length 0.58592   
     axis -4.11101e-014 90 90   XYZ
    dof rx
    limits (0.0 90.0)
  end
  begin
     id 23
     name lthumb
     direction 0.707107 -6.34922e-011 0.707107   
     length 0.841268   
     axis -90 45 2.85299e-015   XYZ
    dof rx rz
    limits (-45.0 45.0)
           (-45.0 45.0)
  end
  begin
     id 24 
     name rclavicle
     direction -0.972232 0.230238 0.0419005   
     length 3.40416  
     axis 0 0 0   XYZ 
    dof ry rz
    limits (-10.0 20.0)
           (-20.0 0.0)
  end
  begin
     id 25 
     name rhumerus
     direction -1 -4.48976e-011 2.48487e-027  
     length 5.37045   
     axis 180 30 90   XYZ
    dof rx ry rz
    limits (-90.0 60.0)
           (-90.0 90.0)
           (-90.0 90.0)
  end
  begin
     id 26 
     name rradius
     direction -1 -4.48942e-011 7.87951e-027   
     length 2.92792   
     axis 180 30 90   XYZ
    dof rx
    limits (-10.0 170.0)
  end
  begin
     id 27 
     name rwrist
     direction -1 -4.48969e-011 1.61068e-026   
     length 1.46396   
     axis -9.31229e-015 -90 -90   XYZ
    dof ry
    limits (-180.0 0.0)
  end
  begin
     id 28
     name rhand
     direction -1 -4.49043e-011 3.22136e-026   
     length 0.784497   
     axis -2.0555e-014 -90 -90   XYZ
    dof rx rz
    limits (-90.0 90.0)
           (-45.0 45.0)
  end
  begin
     id 29
     name rfingers
     direction -1 -4.48823e-011 6.44272e-026   
     length 0.632482   
     axis -4.11101e-014 -90 -90   XYZ
    dof rx
    limits (0.0 90.0)
  end
  begin
     id 30
     name rthumb
     direction -0.707107 -6.34923e-011 0.707107   
     length 0.908121   
     axis -90 -45 -2.85299e-015   XYZ
    dof rx rz
    limits (-45.0 45.0)
           (-45.0 45.0)
  end
:hierarchy
  begin
    root lhipjoint rhipjoint lowerback
    lhipjoint lfemur
    lfemur ltibia
    ltibia lfoot
    lfoot ltoes
    rhipjoint rfemur
    rfemur rtibia
    rtibia rfoot
    rfoot rtoes
    lowerback upperback
    upperback thorax
    thorax lowerneck lclavicle rclavicle
    lowerneck upperneck
    upperneck head
    lclavicle lhumerus
    lhumerus lradius
    lradius lwrist
    lwrist lhand lthumb
    lhand lfingers
    rclavicle rhumerus
    rhumerus rradius
    rradius rwrist
    rwrist rhand rthumb
    rhand rfingers
  end

#!OML:ASF E:\Style6\Style6.ASF
:FULLY-SPECIFIED
:DEGREES
1222
root 0.656615 17.3437 -0.934532 37.9731 -5.44316 6.17969
lowerback 17.1851 -1.40701 4.92199
upperback 7.05379 -0.857162 5.86673
thorax -2.04971 -0.436166 3.58857
lowerneck 9.42344 13.9637 1.95776
upperneck 6.70199 19.6091 -20.7118
head 2.74604 9.885 -6.41725
rclavicle 6.36111e-015 -1.98785e-014
rhumerus 19.3615 -7.31567 -76.3693
rradius 33.3232
rwrist 27.858
rhand -3.67064 7.88457
rfingers 7.12502
rthumb 22.0702 -20.876
lclavicle 6.36111e-015 -1.98785e-014
lhumerus 87.1453 -22.457 16.592
lradius 30.0012
lwrist -13.085
lhand 4.57378 16.5257
lfingers 7.12502
lthumb 29.9633 44.1196
rfemur -67.7208 -9.7543 17.1124
rtibia 39.3538
rfoot -3.99935 -1.22304
rtoes -17.4592
lfemur -60.858 3.30201 -30.1686
ltibia 34.9884
lfoot -6.08209 1.02893
ltoes -18.651
1223
root 0.661223 17.3438 -0.930447 37.9624 -5.40542 6.15105
lowerback 17.1491 -1.43616 4.9572
upperback 7.04724 -0.891638 5.87312
thorax -2.03706 -0.452481 3.58105
lowerneck 9.45069 13.985 1.90279
upperneck 6.65768 19.6186 -20.6639
head 2.7199 9.89279 -6.39861
rclavicle -9.54166e-015 -2.54444e-014
rhumerus 19.3114 -6.74554 -76.151
rradius 33.277
rwrist 27.8428
rhand -3.86373 7.76119
rfingers 7.12502
rthumb 21.8848 -21.0211
lclavicle -9.54166e-015 -2.54444e-014
lhumerus 87.2035 -22.4457 16.2303
lradius 30.0867
lwrist -12.8716
lhand 4.87216 16.6757
lfingers 7.12502
lthumb 30.248 44.2178
rfemur -67.6525 -9.74695 17.1113
rtibia 39.3087
rfoot -3.98747 -1.25929
rtoes -17.2179
lfemur -60.8274 3.29268 -30.149
ltibia 34.9598
lfoot -6.06175 1.06841
ltoes -19.2342
1224
root 0.66632 17.3471 -0.925443 37.949 -5.36252 6.12563
lowerback 17.0961 -1.45103 5.02542
upperback 7.05037 -0.905926 5.85688
thorax -2.00648 -0.457851 3.52613
lowerneck 9.53972 13.9911 1.95636
upperneck 6.54541 19.6083 -20.6688
head 2.67607 9.90158 -6.4187
rclavicle 2.06736e-014 -8.50798e-014
rhumerus 19.2358 -6.26961 -75.9389
rradius 33.3057
rwrist 27.9455
rhand -3.78849 7.64777
rfingers 7.12502
rthumb 21.9571 -21.1261
lclavicle 2.06736e-014 -8.50798e-014
lhumerus 87.3128 -22.4496 15.8767
lradius 30.1656
lwrist -12.6906
lhand 4.88803 16.775
lfingers 7.12502
lthumb 30.2632 44.3143
rfemur -67.5741 -9.76352 17.1214
rtibia 39.2698
rfoot -4.01311 -1.26204
rtoes -16.3491
lfemur -60.786 3.3153 -30.1539
ltibia 34.9299
lfoot -6.06901 1.0129
ltoes -19.45
1225
root 0.670564 17.3495 -0.921368 37.9543 -5.37768 6.11366
lowerback 17.0321 -1.42982 5.01427
upperback 7.06518 -0.887803 5.85031
thorax -1.95764 -0.448661 3.51978
lowerneck 9.6002 14.0081 1.95681
upperneck 6.47887 19.6137 -20.6311
head 2.64352 9.91234 -6.41428
rclavicle 1.59028e-015 1.90833e-014
rhumerus 19.1894 -5.81272 -75.6681
rradius 33.353
rwrist 28.0873
rhand -3.51884 7.51788
rfingers 7.12502
rthumb 22.2159 -21.2254
lclavicle 1.59028e-015 1.90833e-014
lhumerus 87.4418 -22.4504 15.7071
lradius 30.1748
lwrist -12.7021
lhand 5.01348 16.5614
lfingers 7.12502
lthumb 30.3828 44.0787
rfemur -67.5392 -9.75784 17.1106
rtibia 39.2234
rfoot -4.02423 -1.25343
rtoes -15.9097
lfemur -60.7802 3.37309 -30.2097
ltibia 34.9145
lfoot -6.11205 0.939036
ltoes -19.13
1226
root 0.675292 17.3507 -0.919052 37.9361 -5.44925 6.15146
lowerback 17.0248 -1.4141 4.86173
upperback 7.0652 -0.890759 5.87295
thorax -1.95193 -0.452924 3.63046
lowerneck 9.57188 14.0382 1.90263
upperneck 6.53238 19.6595 -20.6368
head 2.66555 9.929 -6.40235
rclavicle 1.59028e-015 -2.94201e-014
rhumerus 19.1147 -5.11629 -75.2857
rradius 33.4123
rwrist 28.1961
rhand -3.50755 7.38081
rfingers 7.12502
rthumb 22.2268 -21.3612
lclavicle 1.59028e-015 -2.94201e-014
lhumerus 87.4464 -22.4596 15.6633
lradius 30.1338
lwrist -12.7721
lhand 5.06767 16.3484
lfingers 7.12502
lthumb 30.4345 43.8561
rfemur -67.4993 -9.72006 16.9953
rtibia 39.1782
rfoot -4.05465 -1.30194
rtoes -15.5283
lfemur -60.7393 3.3702 -30.2759
ltibia 34.894
lfoot -6.11843 0.962643
ltoes -19.0162
1227
root 0.680534 17.3536 -0.91621 37.9125 -5.45996 6.11642
lowerback 17.0355 -1.41618 4.86434
upperback 7.06981 -0.892182 5.88576
thorax -1.95229 -0.453894 3.64327
lowerneck 9.46993 14.0495 1.85706
upperneck 6.64718 19.6949 -20.6266
head 2.71567 9.9316 -6.37907
rclavicle 6.36111e-015 1.74931e-014
rhumerus 19.0701 -4.45498 -74.9608
rradius 33.4131
rwrist 28.3052
rhand -3.47522 7.35873
rfingers 7.12502
rthumb 22.2578 -21.3795
lclavicle 6.36111e-015 1.74931e-014
lhumerus 87.4347 -22.5105 15.6303
lradius 30.1229
lwrist -12.8607
lhand 5.1982 16.2862
lfingers 7.12502
lthumb 30.559 43.7708
rfemur -67.4413 -9.67985 16.986
rtibia 39.1387
rfoot -4.01851 -1.35815
rtoes -16.581
lfemur -60.6835 3.3386 -30.2125
ltibia 34.8829
lfoot -6.10023 1.01983
ltoes -18.8454
1228
root 0.684489 17.3554 -0.914884 37.8625 -5.46894 6.1118
lowerback 17.0982 -1.41245 4.87466
upperback 7.07582 -0.881683 5.85875
thorax -1.97968 -0.448375 3.60833
lowerneck 9.40187 14.0367 1.88006
upperneck 6.71635 19.696 -20.6253
head 2.74948 9.9235 -6.37366
rclavicle -7.95139e-015 6.44062e-014
rhumerus 19.0292 -3.78277 -74.6383
rradius 33.3759
rwrist 28.3232
rhand -3.48236 7.3879
rfingers 7.12502
rthumb 22.251 -21.3512
lclavicle -7.95139e-015 6.44062e-014
lhumerus 87.4931 -22.5967 15.6108
lradius 30.1188
lwrist -13.0022
lhand 5.44258 16.2692
lfingers 7.12502
lthumb 30.792 43.7101
rfemur -67.3662 -9.64724 16.942
rtibia 39.1112
rfoot -3.94907 -1.42882
rtoes -17.5687
lfemur -60.6058 3.30099 -30.1745
ltibia 34.8662
lfoot -6.09241 1.03703
ltoes -18.3833
1229
root 0.687942 17.3552 -0.913441 37.8378 -5.46867 6.1195
lowerback 17.1254 -1.39524 4.9031
upperback 7.07326 -0.854325 5.8093
thorax -1.99874 -0.433826 3.53493
lowerneck 9.4147 13.9911 1.97892
upperneck 6.68518 19.6422 -20.6618
head 2.74382 9.90148 -6.40273
rclavicle -6.36111e-015 -1.51076e-014
rhumerus 18.9634 -3.15343 -74.3173
rradius 33.3185
rwrist 28.4358
rhand -3.59393 7.44806
rfingers 7.12502
rthumb 22.1439 -21.3038
lclavicle -6.36111e-015 -1.51076e-014
lhumerus 87.6666 -22.6615 15.4109
lradius 30.1559
lwrist -12.959
lhand 5.4364 16.3539
lfingers 7.12502
lthumb 30.7861 43.7959
rfemur -67.3156 -9.6378 16.9039
rtibia 39.0802
rfoot -3.95332 -1.45479
rtoes -17.5546
lfemur -60.5609 3.27145 -30.163
ltibia 34.8571
lfoot -6.11865 1.03812
ltoes -17.9909
1230
root 0.693356 17.3566 -0.911996 37.8075 -5.45278 6.1151
lowerback 17.1785 -1.4062 4.95467
upperback 7.05414 -0.855534 5.77032
thorax -2.04822 -0.433357 3.46611
lowerneck 9.55431 13.9619 2.00763
upperneck 6.4998 19.5673 -20.6776
head 2.66034 9.8856 -6.43293
rclavicle -4.45278e-014 1.98785e-014
rhumerus 18.8948 -2.38229 -73.9756
rradius 33.2744
rwrist 28.6054
rhand -3.64898 7.48426
rfingers 7.12502
rthumb 22.091 -21.2738
lclavicle -4.45278e-014 1.98785e-014
lhumerus 87.749 -22.692 15.1958
lradius 30.1947
lwrist -12.8552
lhand 5.51309 16.2996
lfingers 7.12502
lthumb 30.8592 43.7278
rfemur -67.2445 -9.61883 16.8567
rtibia 39.0352
rfoot -3.93541 -1.50349
rtoes -17.8859
lfemur -60.5187 3.23599 -30.1426
ltibia 34.8457
lfoot -6.09959 1.08456
ltoes -17.9787
1231
root 0.69829 17.3598 -0.908742 37.7732 -5.43696 6.0861
lowerback 17.1886 -1.41195 4.99858
upperback 7.05701 -0.856652 5.73942
thorax -2.05139 -0.432761 3.40867
lowerneck 9.67601 13.9509 2.07363
upperneck 6.33763 19.5248 -20.6802
head 2.59311 9.88361 -6.46007
rclavicle 2.38542e-014 6.20208e-014
rhumerus 18.8506 -1.4479 -73.5584
rradius 33.26
rwrist 28.6191
rhand -3.53592 7.44305
rfingers 7.12502
rthumb 22.1995 -21.3022
lclavicle 2.38542e-014 6.20208e-014
lhumerus 87.7743 -22.7171 15.0796
lradius 30.2355
lwrist -12.8748
lhand 5.58712 16.2315
lfingers 7.12502
lthumb 30.9298 43.6463
rfemur -67.1434 -9.57781 16.8263
rtibia 38.9766
rfoot -3.935 -1.58374
rtoes -17.8524
lfemur -60.4552 3.1954 -30.0849
ltibia 34.8292
lfoot -6.1259 1.15769
ltoes -18.2159
1232
root 0.701858 17.3644 -0.904109 37.745 -5.4541 6.01524
lowerback 17.1792 -1.40231 5.01725
upperback 7.07903 -0.844956 5.72303
thorax -2.02365 -0.426375 3.37776
lowerneck 9.74668 13.9703 2.08674
upperneck 6.23485 19.5276 -20.6442
head 2.54918 9.8959 -6.45989
rclavicle 0 1.98785e-014
rhumerus 18.8269 -0.285946 -73.0121
rradius 33.2327
rwrist 28.5669
rhand -3.52238 7.29389
rfingers 7.12502
rthumb 22.2125 -21.4498
lclavicle 0 1.98785e-014
lhumerus 87.8078 -22.7438 15.0157
lradius 30.2266
lwrist -12.977
lhand 5.62066 16.0054
lfingers 7.12502
lthumb 30.9618 43.4141
rfemur -67.0378 -9.48435 16.8145
rtibia 38.906
rfoot -3.9831 -1.66815
rtoes -16.9463
lfemur -60.3865 3.17812 -29.9729
ltibia 34.803
lfoot -6.12469 1.23273
ltoes -18.2035
1233
root 0.70504 17.3683 -0.900496 37.7273 -5.51314 6.04225
lowerback 17.1396 -1.42165 4.85874
upperback 7.11405 -0.900068 5.73438
thorax -1.96252 -0.455569 3.48798
lowerneck 9.73758 14.0289 1.96782
upperneck 6.13597 19.5777 -20.6486
head 2.51713 9.92538 -6.44471
rclavicle 3.18055e-014 -2.46493e-014
rhumerus 18.8747 1.10613 -72.3792
rradius 33.1788
rwrist 28.7305
rhand -3.68361 7.27551
rfingers 7.12502
rthumb 22.0578 -21.4865
lclavicle 3.18055e-014 -2.46493e-014
lhumerus 87.5281 -22.8075 15.1446
lradius 30.292
lwrist -13.2535
lhand 5.2739 15.8932
lfingers 7.12502
lthumb 30.6312 43.3643
rfemur -66.9766 -9.43069 16.703
rtibia 38.8531
rfoot -3.95488 -1.74624
rtoes -17.2099
lfemur -60.3358 3.16228 -30.0114
ltibia 34.7677
lfoot -6.09747 1.24225
ltoes -18.5198
1234
root 0.708596 17.3696 -0.897654 37.7127 -5.54274 6.08983
lowerback 17.0903 -1.42239 4.74841
upperback 7.14527 -0.925031 5.72052
thorax -1.90192 -0.468831 3.53808
lowerneck 9.67308 14.0377 1.96105
upperneck 6.11127 19.5904 -20.6634
head 2.52259 9.92975 -6.44241
rclavicle 1.59028e-014 2.94201e-014
rhumerus 18.8506 2.36267 -71.7365
rradius 33.2218
rwrist 28.9788
rhand -3.71376 7.33442
rfingers 7.12502
rthumb 22.0288 -21.431
lclavicle 1.59028e-014 2.94201e-014
lhumerus 87.0835 -22.9872 15.53
lradius 30.4654
lwrist -13.7383
lhand 4.83509 16.0345
lfingers 7.12502
lthumb 30.2127 43.5831
rfemur -66.934 -9.43339 16.6093
rtibia 38.8161
rfoot -3.93414 -1.77237
rtoes -17.1843
lfemur -60.2856 3.11395 -30.0518
ltibia 34.7302
lfoot -6.07891 1.28659
ltoes -18.8811
1235
root 0.711822 17.3702 -0.895224 37.7148 -5.56612 6.13658
lowerback 17.0202 -1.39823 4.70726
upperback 7.16393 -0.910057 5.65277
thorax -1.84691 -0.460521 3.48347
lowerneck 9.62797 14.007 2.02356
upperneck 6.0935 19.5527 -20.6118
head 2.52048 9.90986 -6.43355
rclavicle -3.49861e-014 5.64548e-014
rhumerus 18.7807 3.55653 -71.1066
rradius 33.272
rwrist 29.2344
rhand -3.72135 7.29153
rfingers 7.12502
rthumb 22.0215 -21.4748
lclavicle -3.49861e-014 5.64548e-014
lhumerus 86.9769 -23.0872 15.6647
lradius 30.5822
lwrist -13.8749
lhand 4.76034 16.3667
lfingers 7.12502
lthumb 30.1413 43.9282
rfemur -66.9381 -9.4634 16.5549
rtibia 38.8088
rfoot -3.88834 -1.76875
rtoes -17.7721
lfemur -60.2375 3.04682 -30.0759
ltibia 34.6732
lfoot -6.04811 1.35801
ltoes -19.2516
